<?xml version="1.0" encoding="iso-8859-1"?>
<!-- Generator: Adobe Illustrator 19.0.0, SVG Export Plug-In . SVG Version: 6.00 Build 0)  -->
<svg xmlns="http://www.w3.org/2000/svg" version="1.1" xmlns:xlink="http://www.w3.org/1999/xlink" preserveAspectRatio="none" x="0px" y="0px" width="36px" height="36px" viewBox="0 0 36 36" class=" drawsvg-initialized ">
<path stroke="#FFFFFF" stroke-width="1.6" stroke-linejoin="miter" stroke-linecap="butt" stroke-miterlimit="4" fill="none" d="M 18 0.85Q 25.1 0.85 30.1 5.9 35.15 10.9 35.15 18 35.15 25.1 30.1 30.15 25.1 35.2 18 35.2 10.9 35.2 5.85 30.15 0.8 25.15 0.8 18 0.8 10.9 5.85 5.9 10.9 0.85 18 0.85 Z" style="stroke-dasharray: 108.034px, 108.034px; stroke-dashoffset: 0px;"></path>
<path stroke="#FFFFFF" stroke-width="1.5" stroke-linejoin="round" stroke-linecap="butt" fill="none" d="M 14.8 21.15Q 14.8 22.55 15.75 23.5 16.7140625 24.4640625 18.05 24.5 18.0998046875 24.5 18.15 24.5 19.55 24.5 20.5 23.5 20.9515625 23.0708984375 21.2 22.55 21.4947265625 21.955859375 21.325 21.025 21.1654296875 20.082421875 20.125 19.375 19.084375 18.667578125 17.925 18.325 16.755078125 17.994140625 16.1 17.4 15.2 16.55 15.2 15.4 15.2 14.25 16.1 13.4 17 12.55 18.25 12.55L 18.3 12.55 18.3 10M 18.3 12.55Q 19.5181640625 12.5669921875 20.4 13.4 21.2 14.15 21.25 15.85M 18.05 24.5L 18.05 26.75" style="stroke-dasharray: 33.984px, 33.984px; stroke-dashoffset: 0px;"></path>
</svg>
